<svg xmlns="http://www.w3.org/2000/svg" width="132.78" height="126.58" viewBox="0 0 132.78 126.58">
	<path fill="#f0f1f8" d="M69.48,0C104.44,0 132.78,28.33 132.78,63.29C132.78,98.25 104.44,126.58 69.48,126.58C34.53,126.58 6.19,98.25 6.19,63.29C6.19,28.33 34.53,0 69.48,0"/>
	<path fill="#2b265e" d="M87.12,42.56C88.11,42.63 88.97,41.88 89.04,40.89C89.04,40.84 89.05,40.78 89.04,40.73C89.1,39.72 88.32,38.85 87.31,38.8C87.26,38.8 87.2,38.8 87.14,38.8C86.18,38.71 85.33,39.43 85.25,40.39C85.24,40.48 85.24,40.57 85.24,40.66C85.14,41.61 85.83,42.46 86.77,42.56C86.89,42.57 87,42.57 87.12,42.56"/>
	<path fill="#e7e6e6" d="M1.8,92.43C2.79,92.43 3.6,93.23 3.6,94.23C3.6,95.22 2.79,96.03 1.8,96.03C0.8,96.03 0,95.22 0,94.23C0,93.23 0.8,92.43 1.8,92.43"/>
	<path fill="#8c94c9" d="M51.6,101.18C52.59,101.18 53.4,101.98 53.4,102.98C53.4,103.97 52.59,104.78 51.6,104.78C50.6,104.78 49.8,103.97 49.8,102.98C49.8,101.98 50.6,101.18 51.6,101.18"/>
	<path fill="#8c94c9" d="M49.8,73.84C50.79,73.84 51.6,74.65 51.6,75.65C51.6,76.64 50.79,77.45 49.8,77.45C48.8,77.45 48,76.64 48,75.65C48,74.65 48.8,73.84 49.8,73.84"/>
	<path fill="#e7e6e6" d="M124.75,12.82C125.75,12.82 126.55,13.63 126.55,14.63C126.55,15.62 125.75,16.43 124.75,16.43C123.76,16.43 122.95,15.62 122.95,14.63C122.95,13.63 123.76,12.82 124.75,12.82"/>
	<path fill="#97d3f1" d="M74.67,58.99C75.66,58.99 76.47,59.8 76.47,60.79C76.47,61.79 75.66,62.59 74.67,62.59C73.67,62.59 72.86,61.79 72.86,60.79C72.86,59.8 73.67,58.99 74.67,58.99"/>
	<path fill="#ffffff" d="M91.26,118.18C91.38,118.24 91.54,118.21 91.89,118.21C82.41,111.92 77.57,103.33 78.59,92.11C79.57,80.96 85.82,73.47 95.9,68.79C81.84,71.57 72.7,85.23 75.48,99.29C76.35,103.71 78.36,107.82 81.3,111.23C81.52,111.39 81.71,111.59 81.84,111.83C83.43,113.56 85.25,115.07 87.24,116.32C87.47,116.38 87.7,116.48 87.91,116.6C89.01,117.14 90.15,117.64 91.26,118.18"/>
	<path fill="#13ce66" d="M126.87,94.26C126.86,79.93 115.25,68.32 100.93,68.31C99.24,68.3 97.55,68.47 95.9,68.82C85.82,73.5 79.56,80.99 78.58,92.14C77.61,103.36 82.44,111.99 91.88,118.24C91.54,118.21 91.38,118.24 91.25,118.21C90.11,117.67 89.01,117.14 87.9,116.6C87.69,116.48 87.47,116.38 87.24,116.31C99.39,123.88 115.38,120.17 122.95,108.01C125.52,103.89 126.88,99.12 126.87,94.26Z"/>
	<path fill="#000000" d="M34.98,3.31C21.25,5.6 10.99,17.16 10.36,31.06C10.12,35.85 11.06,40.62 13.11,44.96C13.26,45.32 13.46,45.66 13.71,45.97C14.23,46.55 15.04,46.75 15.76,46.48C16.53,46.18 17,45.39 16.9,44.58C16.81,44.14 16.68,43.72 16.49,43.31C14.27,38.65 13.57,33.42 14.5,28.34C16.46,17.66 22.78,10.8 33.11,7.55C33.84,7.33 34.63,7.23 35.39,7.07C35.32,7.11 35.23,7.14 35.17,7.17C36.82,6.84 38.5,6.67 40.19,6.66C54.52,6.57 66.21,18.12 66.29,32.44C66.38,46.77 54.84,58.46 40.51,58.55C40.41,58.55 40.3,58.55 40.19,58.55C35.35,58.56 30.61,57.2 26.51,54.63C25.64,54.24 24.62,54.6 24.2,55.45C23.63,56.5 24.04,57.48 25.4,58.23C37.72,65.21 53.27,62.43 62.4,51.6C68.48,44.67 70.84,35.23 68.75,26.26C65.56,10.73 50.59,0.56 34.98,3.31"/>
	<path fill="#000000" d="M128.45,83.93C128.12,82.93 127.71,81.97 127.22,81.05C126.72,80.19 125.65,79.86 124.75,80.29C123.9,80.68 123.49,81.65 123.8,82.54C123.99,83.05 124.2,83.56 124.44,84.05C130.11,97.08 124.15,112.25 111.12,117.92C98.09,123.6 82.93,117.64 77.25,104.61C75.82,101.34 75.1,97.8 75.11,94.23C75.11,93.25 75.08,92.24 75.11,91.26C75.16,90.66 75.25,90.07 75.39,89.49C77.71,76.7 89.25,67.69 102.22,68.54C105.3,68.65 108.33,69.37 111.13,70.65C112.08,71.1 112.97,71.63 113.95,72.04C114.83,72.53 115.94,72.21 116.42,71.33C116.62,70.98 116.69,70.58 116.63,70.18C116.55,69.42 116.04,68.78 115.33,68.5C101.12,60.45 83.08,65.44 75.02,79.65C66.97,93.85 71.95,111.9 86.16,119.96C91.75,123.12 98.22,124.39 104.59,123.55C111.34,122.83 117.59,119.66 122.16,114.64C130.25,105.73 132.3,95.4 128.45,83.93"/>
	<path fill="#000000" d="M54.88,102.41C54.44,102.19 53.97,102.03 53.49,101.84C42.63,97.67 34.01,89.13 29.73,78.3C29.62,77.97 29.47,77.65 29.29,77.35C28.94,76.73 28.22,76.4 27.52,76.53C26.81,76.62 26.21,77.09 25.97,77.76C25.79,78.33 25.86,78.95 26.16,79.47C29.02,86.83 33.76,93.31 39.91,98.27C43.68,101.36 47.94,103.8 52.51,105.5C52.99,105.66 53.46,105.82 53.75,105.88C54.68,105.94 55.52,105.33 55.77,104.43C55.99,103.63 55.62,102.79 54.88,102.41"/>
	<path fill="#000000" d="M82.91,23.66C83.25,23.87 83.61,24.02 83.99,24.14C88.7,26.03 93.02,28.76 96.75,32.19C97.04,32.46 97.36,32.7 97.7,32.89C98.44,33.26 99.33,33.1 99.88,32.48C100.46,31.9 100.54,30.98 100.07,30.3C99.82,29.94 99.52,29.61 99.19,29.32C95.11,25.6 90.41,22.65 85.29,20.6C84.88,20.44 84.43,20.35 84.18,20.25C83.37,20.21 82.61,20.68 82.28,21.42C81.93,22.23 82.2,23.16 82.91,23.66"/>
	<path fill="#000000" d="M103.96,40.25C104.03,40.79 104.22,41.31 104.5,41.77C105.16,43.1 105.89,44.39 106.55,45.72C106.93,46.51 107.21,47.4 107.59,48.19C108,49.13 109.09,49.57 110.03,49.16C110.05,49.15 110.07,49.14 110.09,49.13C111.01,48.75 111.44,47.7 111.05,46.78C111.05,46.78 111.04,46.77 111.04,46.76C110.11,44.15 108.89,41.65 107.41,39.31C107.1,38.72 106.49,38.37 105.83,38.39C104.89,38.3 104.05,38.99 103.96,39.93C103.95,40.04 103.95,40.15 103.96,40.25"/>
	<path fill="#000000" d="M102,37.53C103.04,37.56 103.92,36.77 103.99,35.73C104.06,34.7 103.27,33.8 102.23,33.74C101.2,33.67 100.3,34.46 100.23,35.49C100.23,35.54 100.23,35.59 100.23,35.64C100.28,36.62 101.03,37.42 102,37.53"/>
	<path fill="#000000" d="M19.4,49.23C18.35,49.3 17.56,50.2 17.63,51.25C17.71,52.23 18.51,52.98 19.49,53.02C20.52,52.94 21.33,52.09 21.36,51.06C21.35,50.76 21.27,50.46 21.1,50.21C20.91,50.02 20.75,49.83 20.57,49.61C20.25,49.33 19.82,49.19 19.4,49.23"/>
	<path fill="#000000" d="M121.09,77.54C122.14,77.57 123.02,76.73 123.05,75.68C123.07,74.62 122.24,73.74 121.18,73.72C120.14,73.69 119.27,74.51 119.22,75.55C119.29,76.57 120.07,77.4 121.09,77.54"/>
	<path fill="#ffffff" d="M30.52,56.56C30.65,56.62 30.8,56.59 31.15,56.59C21.67,50.3 16.84,41.71 17.85,30.49C18.83,19.34 25.09,11.85 35.17,7.17C21.11,9.95 11.96,23.61 14.74,37.67C15.62,42.09 17.63,46.2 20.57,49.61C20.79,49.77 20.97,49.97 21.11,50.21C22.7,51.94 24.51,53.45 26.51,54.7C26.74,54.76 26.96,54.86 27.17,54.98C28.28,55.48 29.42,56.02 30.52,56.56"/>
	<path fill="#6f36ff" d="M66.13,32.61C66.12,18.28 54.52,6.67 40.19,6.66C38.5,6.65 36.82,6.82 35.17,7.17C25.09,11.84 18.83,19.33 17.85,30.49C16.87,41.71 21.7,50.33 31.15,56.59C30.8,56.56 30.64,56.59 30.52,56.56C29.38,56.02 28.27,55.48 27.17,54.94C26.96,54.82 26.74,54.73 26.5,54.66C38.66,62.23 54.64,58.51 62.21,46.36C64.78,42.23 66.14,37.47 66.13,32.6Z"/>
	<path fill="#ffffff" d="M20.57,49.57C20.73,49.76 20.92,49.99 21.1,50.17C20.97,49.94 20.79,49.73 20.57,49.57"/>
	<path fill="#ffffff" d="M35.49,27.08C35.45,25.78 36.56,24.77 38.3,24.61L38.3,29.13L38.27,29.13C37.81,29.13 37.36,29.04 36.94,28.88C36.14,28.61 35.58,27.91 35.48,27.08ZM43.67,36.52C43.7,37.82 42.6,38.83 40.86,38.99L40.86,34.47L40.89,34.47C41.34,34.47 41.79,34.56 42.22,34.72C43.01,34.98 43.58,35.69 43.67,36.52ZM44.52,31.5C43.86,31.15 43.16,30.9 42.47,30.61C42.26,30.53 42.05,30.45 41.83,30.39C41.49,30.26 41.17,30.11 40.88,29.98L40.88,24.45C41.5,24.56 42.1,24.73 42.69,24.96C43.41,25.27 44.04,25.75 44.77,26.12C44.96,26.22 45.16,26.29 45.37,26.35C46.01,26.48 46.67,26.2 47.01,25.65C47.54,25.05 47.47,24.14 46.87,23.62C46.84,23.59 46.8,23.56 46.76,23.53C46.15,22.95 45.45,22.47 44.67,22.14C43.51,21.66 42.24,21.38 40.79,20.94L40.79,20.66C40.79,20.28 40.82,19.9 40.79,19.52C40.79,18.84 40.24,18.29 39.56,18.29C38.89,18.31 38.36,18.87 38.39,19.54L38.39,19.55C38.32,20.09 38.32,20.6 38.29,21.1C37.5,21.29 36.87,21.39 36.24,21.58C34.84,21.95 33.62,22.82 32.79,24.01C31.38,26.01 31.43,28.7 32.92,30.65C33.37,31.26 33.95,31.75 34.63,32.1C35.29,32.45 35.99,32.7 36.68,32.98C36.89,33.07 37.1,33.15 37.31,33.21C37.66,33.33 37.98,33.49 38.26,33.62L38.26,39.15C37.65,39.03 37.04,38.86 36.46,38.64C35.73,38.32 35.1,37.85 34.37,37.47C34.18,37.38 33.98,37.3 33.77,37.25C33.13,37.12 32.48,37.4 32.13,37.95C31.61,38.55 31.67,39.46 32.27,39.98C32.31,40.01 32.35,40.04 32.38,40.07C32.99,40.65 33.7,41.12 34.47,41.46C35.64,41.93 36.9,42.22 38.36,42.66L38.36,42.94C38.36,43.32 38.33,43.7 38.36,44.08C38.36,44.76 38.91,45.31 39.59,45.31C40.26,45.29 40.78,44.73 40.76,44.06C40.76,44.06 40.76,44.05 40.76,44.05C40.82,43.51 40.82,43 40.85,42.5C41.64,42.31 42.28,42.22 42.91,42.03C44.31,41.65 45.53,40.79 46.35,39.59C47.77,37.59 47.72,34.9 46.22,32.95C45.77,32.35 45.19,31.85 44.52,31.5"/>
	<path fill="#ffffff" d="M97.3,90.47L104.41,90.47C104.88,90.43 105.34,90.62 105.64,90.97C106.01,91.37 106.1,91.94 105.86,92.43C105.67,92.97 105.14,93.33 104.56,93.31L96.51,93.31L96.51,94.42C96.7,94.42 96.88,94.45 97.07,94.45L104.22,94.45C104.55,94.45 104.88,94.52 105.2,94.64C105.79,94.92 106.11,95.58 105.95,96.22C105.78,96.86 105.2,97.31 104.53,97.33L97.3,97.33C98.7,100.18 101.72,101.86 104.88,101.56C105.75,101.49 106.6,101.25 107.38,100.86C107.64,100.72 107.91,100.62 108.2,100.58C108.87,100.46 109.53,100.87 109.72,101.52C109.94,102.21 109.61,102.95 108.96,103.26C107.88,103.81 106.72,104.17 105.52,104.34C103.5,104.63 101.45,104.32 99.61,103.45C97.17,102.32 95.26,100.29 94.27,97.79C94.2,97.64 94.13,97.48 94.08,97.32L92.94,97.32C92.47,97.32 92.03,97.29 91.55,97.32C90.8,97.32 90.17,96.76 90.07,96.02C89.99,95.25 90.55,94.56 91.32,94.48C91.35,94.48 91.37,94.47 91.39,94.47C91.88,94.43 92.36,94.42 92.85,94.44L93.51,94.44L93.51,93.33L91.36,93.33C90.65,93.26 90.1,92.69 90.06,91.98C90.03,91.23 90.58,90.59 91.33,90.52C92.08,90.49 92.84,90.52 93.6,90.49L94.04,90.49C94.11,90.33 94.17,90.21 94.23,90.08C96.35,84.65 102.48,81.97 107.91,84.09C108.26,84.22 108.6,84.38 108.93,84.55C109.64,84.89 109.95,85.73 109.63,86.45C109.29,87.16 108.45,87.47 107.73,87.18C107.25,86.99 106.78,86.76 106.27,86.61C103.29,85.69 100.05,86.68 98.09,89.11C97.77,89.52 97.5,89.98 97.3,90.47"/>
</svg>