<svg xmlns="http://www.w3.org/2000/svg" width="175.69" height="120.91" viewBox="0 0 175.69 120.91">
	<path fill="#f0f1f8" d="M87.83,0C121.22,0 148.29,27.06 148.29,60.45C148.29,93.84 121.22,120.91 87.83,120.91C54.44,120.91 27.37,93.84 27.37,60.45C27.37,27.06 54.44,0 87.83,0"/>
	<path fill="#ffffff" d="M104.19,7.51L69.3,7.51C62.41,7.51 53.12,5.85 46.99,9.11C44.88,10.23 45.96,12.88 45.96,15.03L45.96,108.81L129.6,108.81L129.6,31.05C129.6,31.05 109.08,7.51 104.19,7.51"/>
	<path fill="#6f36ff" d="M106.57,48.53C100.92,37.21 87.17,32.61 75.85,38.26C74.49,38.94 73.21,39.75 72.01,40.68C65.91,48.35 63.92,56.77 67.58,65.97C71.23,75.24 78.48,80.13 88.43,81.34C88.13,81.46 88.04,81.55 87.92,81.55C86.83,81.58 85.72,81.61 84.63,81.61C84.42,81.61 84.21,81.63 84,81.67C96.6,82.84 107.76,73.57 108.93,60.97C109.33,56.68 108.51,52.37 106.57,48.53"/>
	<path fill="#ffffff" d="M88.52,81.46C88.64,81.46 88.76,81.37 89.04,81.25C79.08,80.04 71.84,75.15 68.18,65.89C64.56,56.68 66.52,48.29 72.62,40.59C63.97,47.31 61.27,59.2 66.16,68.99C68.61,73.93 72.77,77.8 77.86,79.89C78.1,79.92 78.32,80.01 78.5,80.16C80.44,80.9 82.47,81.36 84.53,81.55C84.74,81.51 84.96,81.49 85.17,81.49C86.32,81.49 87.44,81.46 88.52,81.46"/>
	<path fill="#2b265e" d="M20.13,73.28C21.01,72.92 21.43,71.9 21.06,71.02C21.04,70.98 21.02,70.94 21,70.9C20.6,70 19.55,69.6 18.65,70.01C18.62,70.02 18.59,70.04 18.56,70.05C17.7,70.38 17.28,71.34 17.61,72.19C17.64,72.29 17.69,72.38 17.74,72.47C18.05,73.31 18.98,73.74 19.82,73.43C19.93,73.39 20.03,73.34 20.13,73.28"/>
	<path fill="#e7e6e6" d="M156.2,75.39C157.15,75.39 157.92,76.16 157.92,77.11C157.92,78.06 157.15,78.83 156.2,78.83C155.25,78.83 154.48,78.06 154.48,77.11C154.48,76.16 155.25,75.39 156.2,75.39"/>
	<path fill="#8c94c9" d="M173.97,54.6C174.92,54.6 175.69,55.37 175.69,56.32C175.69,57.27 174.92,58.04 173.97,58.04C173.02,58.04 172.25,57.27 172.25,56.32C172.25,55.37 173.02,54.6 173.97,54.6"/>
	<path fill="#8c94c9" d="M159.64,29C160.59,29 161.36,29.77 161.36,30.72C161.36,31.67 160.59,32.44 159.64,32.44C158.69,32.44 157.92,31.67 157.92,30.72C157.92,29.77 158.69,29 159.64,29"/>
	<path fill="#e7e6e6" d="M21.06,27.55C22.01,27.55 22.78,28.32 22.78,29.27C22.78,30.22 22.01,30.99 21.06,30.99C20.11,30.99 19.34,30.22 19.34,29.27C19.34,28.32 20.11,27.55 21.06,27.55"/>
	<path fill="#97d3f1" d="M1.72,54.6C2.67,54.6 3.44,55.37 3.44,56.32C3.44,57.27 2.67,58.04 1.72,58.04C0.77,58.04 0,57.27 0,56.32C0,55.37 0.77,54.6 1.72,54.6"/>
	<path fill="#ffffff" d="M40.2,69.69C40.44,69.78 40.65,69.87 40.89,69.96C40.68,69.83 40.45,69.74 40.2,69.69"/>
	<path fill="#2b265e" d="M43.89,107.06L43.89,101.9C43.89,101.14 43.77,100.39 43.77,99.63L43.77,41.98C43.75,41.23 43.81,40.48 43.95,39.75C44.03,38.8 44.83,38.08 45.79,38.09C46.78,38.15 47.58,38.93 47.66,39.93C47.7,40.43 47.71,40.93 47.69,41.44L47.69,106.57C48.9,106.87 126.08,106.96 128.1,106.66L128.1,32.93C127.58,32.9 127.04,32.87 126.53,32.87L110.83,32.87C110.18,32.88 109.53,32.82 108.9,32.68C107.16,32.35 105.83,30.94 105.61,29.18C105.44,28.35 105.35,27.5 105.36,26.65C105.33,21.37 105.36,16.09 105.36,10.8L105.36,9.08C104.7,9.05 104.22,8.99 103.7,8.99L51.79,8.99C49.67,8.99 48.44,9.75 47.89,11.41C47.76,11.94 47.7,12.49 47.71,13.04L47.71,26.17C47.74,26.62 47.72,27.07 47.65,27.52C47.5,28.34 46.82,28.96 45.99,29.03C45.11,29.19 44.25,28.64 44.03,27.76C43.86,27.13 43.78,26.48 43.79,25.83C43.82,21.3 43.94,16.78 43.94,12.25C44.09,8.36 47.23,5.24 51.12,5.13C55.26,5.07 59.36,5.1 63.5,5.1C77.78,5.1 92.06,5.09 106.36,5.07C107.42,5.01 108.44,5.45 109.14,6.24C116.41,14.03 123.75,21.79 131.05,29.54C131.67,30.2 132,31.08 131.96,31.99C131.93,36.37 131.96,40.74 131.96,45.12L131.96,106.97C132.34,107.03 132.74,107.07 133.13,107.09L140.83,107.09C141.24,107.07 141.64,107.08 142.04,107.12C142.86,107.24 143.5,107.89 143.61,108.72C143.71,109.55 143.21,110.34 142.4,110.59C141.92,110.72 141.42,110.79 140.92,110.77L32.56,110.77C32.21,110.79 31.86,110.77 31.51,110.71C30.58,110.53 29.92,109.69 29.97,108.75C30.03,107.85 30.73,107.13 31.63,107.06C31.98,107.02 32.33,107.01 32.68,107.03L42.19,107.03C42.65,107.06 43.16,107.06 43.89,107.06"/>
	<path fill="#29275c" d="M109.02,58.79C109.03,52.77 106.59,47.01 102.26,42.82C98.5,39.04 93.48,36.78 88.16,36.48C76.1,35.54 65.49,44.38 64.23,56.41C63.78,60.53 64.46,64.69 66.19,68.45C66.42,68.94 66.52,69.48 66.49,70.02C66.36,70.85 65.69,71.48 64.86,71.56C64.02,71.67 63.21,71.18 62.93,70.38C62.15,68.53 61.48,66.64 60.93,64.71C57.67,50.79 66.2,36.83 80.07,33.38C88.4,31.09 97.32,33.21 103.73,38.99C108.43,42.89 111.54,48.38 112.46,54.42C113.89,62.27 111.59,70.34 106.24,76.27C102.44,80.71 97.23,83.7 91.48,84.75C85.4,85.95 79.1,84.94 73.7,81.91C72.87,81.61 72.31,80.83 72.28,79.95C72.24,78.95 73.01,78.1 74.02,78.05C74.27,78.04 74.52,78.08 74.76,78.17C75.08,78.3 75.39,78.45 75.69,78.62C78.95,80.33 82.57,81.24 86.26,81.28C97.14,81.47 106.57,73.76 108.53,63.05C108.78,61.6 108.87,60.18 109.02,58.79"/>
	<path fill="#29275c" d="M47.87,33.83C47.9,34.89 47.06,35.77 46,35.8C44.97,35.83 44.1,35.04 44.03,34.01C44.05,32.97 44.82,32.1 45.85,31.96C46.9,31.96 47.78,32.78 47.87,33.83"/>
	<path fill="#29275c" d="M70.41,75.18C70.45,76.22 69.63,77.08 68.6,77.11C68.58,77.11 68.56,77.11 68.54,77.11C67.56,77.06 66.76,76.31 66.64,75.33C66.62,74.29 67.41,73.41 68.45,73.31C69.5,73.31 70.37,74.13 70.41,75.18"/>
	<path fill="#29275c" d="M149.37,108.81C149.32,109.86 148.46,110.68 147.41,110.71C146.35,110.62 145.55,109.69 145.63,108.62C145.71,107.66 146.48,106.9 147.44,106.84C148.49,106.91 149.33,107.75 149.37,108.81"/>
	<path fill="#ffffff" d="M86.59,49.83L80.07,49.83C79.75,49.8 79.43,49.95 79.26,50.22C78.38,51.34 77.54,52.48 76.63,53.54C76.16,54.11 76,54.88 76.21,55.59C76.27,56.11 76.71,56.51 77.23,56.53C77.84,56.66 78.47,56.39 78.8,55.86C79.05,55.36 79.66,55.15 80.16,55.4C80.36,55.49 80.51,55.64 80.61,55.83C80.67,55.89 80.71,56.02 80.77,56.05C80.95,56.22 81.16,56.37 81.4,56.47C82.14,56.74 82.97,56.48 83.42,55.83C83.62,55.39 84.15,55.19 84.6,55.38C84.86,55.5 85.08,55.67 85.26,55.89C85.79,56.64 86.83,56.82 87.58,56.29C87.74,56.18 87.87,56.05 87.98,55.89C88.25,55.38 88.89,55.18 89.4,55.45C89.59,55.55 89.75,55.7 89.85,55.89C90.39,56.66 91.45,56.83 92.21,56.29C92.37,56.17 92.51,56.03 92.63,55.86C92.92,55.36 93.56,55.19 94.06,55.48C94.24,55.58 94.38,55.72 94.47,55.89C94.53,55.95 94.56,56.05 94.62,56.11C94.98,56.68 95.56,56.62 96.1,56.53C96.6,56.46 96.97,56.03 96.97,55.53C97,55.26 96.97,54.95 97,54.68C97.04,54.35 96.93,54.02 96.7,53.78C95.8,52.63 94.89,51.45 93.99,50.28C93.79,50 93.46,49.83 93.11,49.85C90.91,49.83 88.77,49.83 86.59,49.83ZM93.44,57.89C92.1,58.87 90.26,58.84 88.94,57.83C87.56,58.84 85.68,58.84 84.3,57.83C82.95,58.85 81.09,58.86 79.74,57.86C79.56,57.95 79.41,58.07 79.22,58.16C77.54,59.07 75.43,58.45 74.51,56.76C74.26,56.29 74.11,55.77 74.09,55.23L74.09,55.05C74.12,53.15 73.88,53.75 75.06,52.21C76.03,50.97 77.05,49.73 78.02,48.47C78.36,47.98 78.93,47.71 79.53,47.74C84.17,47.77 88.79,47.77 93.44,47.74C94.25,47.69 95.02,48.07 95.46,48.74C96.46,50.13 97.55,51.49 98.6,52.82C98.92,53.19 99.08,53.66 99.06,54.14C99.03,54.51 99.06,54.9 99.06,55.26C98.94,57.2 97.28,58.69 95.34,58.58C94.91,58.52 94.5,58.4 94.1,58.22C93.87,58.13 93.65,58.02 93.44,57.89"/>
	<path fill="#ffffff" d="M84.54,62.38L84.54,67.58L88.67,67.58L88.67,62.38ZM90.76,67.61L94.92,67.61C94.95,67.44 94.96,67.26 94.95,67.09L94.95,60.18C95.02,59.62 95.52,59.22 96.08,59.29C96.56,59.34 96.93,59.73 96.97,60.21L96.97,60.6C96.97,63.2 96.94,65.79 96.97,68.36C97.04,69.04 96.55,69.65 95.87,69.72C95.78,69.72 95.7,69.72 95.62,69.72C89.55,69.69 83.48,69.69 77.42,69.72C76.76,69.79 76.16,69.32 76.08,68.66C76.07,68.56 76.07,68.46 76.09,68.36C76.12,65.73 76.09,63.14 76.09,60.51L76.09,60.18C76.13,59.69 76.53,59.3 77.02,59.27C77.55,59.24 78.01,59.61 78.11,60.12C78.14,60.29 78.15,60.46 78.14,60.63L78.14,67.6L82.31,67.6C82.31,67.42 82.34,67.24 82.34,67.06C82.34,65.25 82.37,63.44 82.34,61.63C82.26,60.97 82.74,60.38 83.4,60.3C83.48,60.29 83.56,60.29 83.64,60.3C85.54,60.33 87.47,60.3 89.37,60.33C90.34,60.33 90.67,60.66 90.67,61.63L90.67,66.85C90.75,67.09 90.78,67.35 90.76,67.61"/>
	<path fill="#ffffff" d="M86.59,55.05L78.44,55.05C78.21,55.06 77.97,55.02 77.75,54.93C77.35,54.73 77.12,54.29 77.21,53.84C77.29,53.42 77.63,53.1 78.05,53.03C78.22,53.01 78.39,53.01 78.56,53.03L95.07,53.03C95.6,53.08 96,53.53 95.98,54.05C95.98,54.57 95.59,55.01 95.07,55.08C94.9,55.09 94.73,55.09 94.56,55.08C91.91,55.05 89.25,55.05 86.59,55.05Z"/>
	<path fill="#2b265e" d="M66.76,96.7C66.88,97.28 66.97,97.88 67.06,98.45L67.12,98.82L66.88,98.7C66.34,98.42 65.79,98.12 65.25,97.82C64.94,97.61 64.53,97.61 64.22,97.82L62.87,98.54L62.38,98.79C62.36,98.79 62.34,98.8 62.32,98.82C62.32,98.76 62.35,98.66 62.35,98.6L62.41,98.18C62.5,97.73 62.56,97.25 62.69,96.76C62.8,96.38 62.67,95.96 62.35,95.71C61.96,95.34 61.57,94.95 61.18,94.56L60.84,94.23C61.21,94.17 61.57,94.11 61.9,94.05C62.23,93.99 62.56,93.96 62.93,93.9C63.29,93.88 63.62,93.64 63.74,93.3C63.95,92.81 64.22,92.3 64.47,91.82L64.68,91.39L64.68,91.36L64.77,91.54C64.86,91.7 64.92,91.84 65.01,92C65.22,92.42 65.43,92.84 65.61,93.27C65.76,93.64 66.11,93.9 66.51,93.93C67.11,94.02 67.69,94.08 68.33,94.2L68.57,94.23L68.29,94.47C67.87,94.9 67.42,95.32 66.97,95.74C66.75,96.01 66.68,96.37 66.76,96.7M70.53,92.93C70.38,92.9 70.2,92.87 70.05,92.84C69.81,92.81 69.54,92.75 69.3,92.72C68.66,92.63 67.97,92.51 67.3,92.45C67.07,92.44 66.86,92.28 66.79,92.05C66.46,91.33 66.1,90.64 65.77,89.94L65.4,89.19C65.31,88.88 65.03,88.68 64.71,88.67C64.39,88.72 64.12,88.94 64.02,89.25L63.56,90.18C63.23,90.82 62.93,91.48 62.6,92.14C62.53,92.31 62.38,92.41 62.2,92.42C61.27,92.54 60.27,92.69 59,92.9C58.74,92.93 58.5,93.08 58.34,93.29C58.07,93.71 58.43,94.05 58.58,94.2L58.67,94.29C58.77,94.39 58.87,94.48 58.97,94.56L59.49,95.07C59.94,95.53 60.42,95.98 60.9,96.43C61.06,96.55 61.12,96.76 61.06,96.94C60.93,97.52 60.84,98.09 60.76,98.63L60.73,98.88C60.67,99.21 60.6,99.54 60.57,99.88L60.51,100.33L60.51,100.36C60.49,100.59 60.6,100.82 60.79,100.96C60.98,101.08 61.21,101.1 61.42,101.02C61.54,100.99 61.65,100.94 61.75,100.87L61.81,100.84C62.05,100.72 62.27,100.6 62.51,100.48C63.11,100.14 63.77,99.81 64.38,99.48C64.57,99.32 64.85,99.32 65.04,99.48C65.64,99.84 66.31,100.14 66.91,100.48C67.15,100.6 67.4,100.72 67.61,100.84L67.7,100.87C67.8,100.94 67.91,100.99 68.03,101.02C68.14,101.05 68.25,101.07 68.36,101.08C68.69,101.09 68.97,100.82 68.97,100.49C68.98,100.45 68.97,100.4 68.96,100.35C68.96,100.26 68.93,100.17 68.93,100.11L68.93,100.05C68.87,99.78 68.84,99.48 68.78,99.21C68.66,98.51 68.57,97.79 68.42,97.09C68.34,96.81 68.45,96.51 68.69,96.34C69.45,95.65 70.14,94.95 70.92,94.14C71.22,93.81 71.26,93.57 71.2,93.38C71.06,93.14 70.81,92.97 70.53,92.93"/>
	<path fill="#2b265e" d="M81.68,96.86C81.8,97.43 81.89,98.03 81.98,98.61L82.04,98.97L81.8,98.85C81.25,98.58 80.71,98.27 80.17,97.97C79.86,97.76 79.45,97.76 79.14,97.97L77.78,98.7L77.33,98.94C77.3,98.94 77.28,98.95 77.27,98.97C77.27,98.91 77.3,98.82 77.3,98.76L77.36,98.33C77.45,97.88 77.51,97.4 77.63,96.91C77.74,96.53 77.61,96.11 77.3,95.86C76.9,95.5 76.51,95.1 76.12,94.71L75.82,94.41C76.18,94.35 76.54,94.29 76.87,94.23C77.24,94.17 77.57,94.14 77.9,94.08C78.27,94.06 78.59,93.83 78.72,93.48C78.93,92.97 79.2,92.48 79.44,92L79.65,91.58L79.65,91.55L79.74,91.73C79.8,91.88 79.89,92.03 79.95,92.18C80.16,92.6 80.38,93.03 80.55,93.45C80.7,93.82 81.05,94.08 81.46,94.11C82.06,94.2 82.64,94.26 83.27,94.39L83.51,94.42L83.24,94.69C82.82,95.11 82.39,95.53 81.94,95.93C81.7,96.17 81.6,96.52 81.67,96.86ZM85.48,93.11C85.33,93.08 85.15,93.05 85,93.02C84.75,92.99 84.48,92.93 84.24,92.9C83.61,92.81 82.91,92.69 82.25,92.63C82.01,92.62 81.8,92.47 81.74,92.24C81.4,91.51 81.04,90.82 80.71,90.12L80.35,89.37C80.26,89.07 79.99,88.87 79.68,88.86L79.65,88.86C79.33,88.9 79.07,89.12 78.96,89.43L78.48,90.4C78.14,91.03 77.84,91.7 77.51,92.33C77.45,92.49 77.29,92.6 77.12,92.6C76.18,92.72 75.19,92.87 73.92,93.08C73.65,93.12 73.41,93.26 73.25,93.47C72.98,93.9 73.35,94.23 73.5,94.38L73.56,94.44L73.86,94.74L74.37,95.25C74.82,95.71 75.3,96.19 75.79,96.61C75.94,96.73 76,96.94 75.94,97.12C75.82,97.67 75.73,98.24 75.64,98.78L75.58,99.06C75.52,99.39 75.46,99.72 75.43,100.06L75.37,100.51L75.37,100.54C75.35,100.77 75.45,101 75.64,101.14C75.83,101.26 76.06,101.28 76.27,101.2C76.39,101.17 76.5,101.12 76.61,101.05L76.7,101.02C76.94,100.9 77.15,100.78 77.39,100.66C77.99,100.32 78.66,99.99 79.26,99.66C79.46,99.5 79.73,99.5 79.93,99.66C80.53,100.02 81.19,100.32 81.8,100.66C82.04,100.78 82.28,100.9 82.49,101.02L82.58,101.05C82.68,101.12 82.8,101.17 82.91,101.2C83.02,101.23 83.13,101.25 83.25,101.26C83.58,101.27 83.85,101 83.86,100.67C83.86,100.63 83.85,100.58 83.85,100.53C83.85,100.44 83.82,100.35 83.82,100.29L83.82,100.23C83.76,99.96 83.72,99.66 83.66,99.39C83.54,98.69 83.45,97.97 83.27,97.25C83.2,96.96 83.31,96.66 83.54,96.49C84.3,95.8 85.05,95.04 85.78,94.29C86.08,93.96 86.11,93.72 86.05,93.54C86.08,93.41 85.93,93.2 85.48,93.11"/>
	<path fill="#2b265e" d="M96.49,96.7C96.61,97.28 96.7,97.88 96.79,98.45L96.85,98.85L96.61,98.73C96.07,98.45 95.52,98.15 94.98,97.85C94.67,97.64 94.26,97.64 93.96,97.85L92.6,98.57L92.11,98.82C92.09,98.82 92.07,98.83 92.05,98.85C92.05,98.79 92.08,98.69 92.08,98.63L92.14,98.21C92.24,97.76 92.3,97.28 92.39,96.79C92.5,96.41 92.37,95.99 92.05,95.74C91.66,95.37 91.27,94.98 90.88,94.59L90.54,94.26C90.91,94.2 91.27,94.14 91.6,94.08C91.93,94.02 92.26,93.99 92.63,93.93C92.99,93.91 93.32,93.67 93.44,93.33C93.65,92.84 93.92,92.33 94.17,91.85L94.38,91.42L94.38,91.39L94.47,91.57C94.56,91.73 94.62,91.87 94.71,92.03C94.92,92.45 95.13,92.84 95.31,93.27C95.46,93.64 95.81,93.9 96.21,93.93C96.81,94.02 97.39,94.08 98.03,94.2L98.27,94.23L97.99,94.47C97.57,94.9 97.12,95.32 96.67,95.74C96.47,96.02 96.41,96.37 96.49,96.7M100.27,92.93C100.11,92.9 99.93,92.87 99.78,92.84C99.54,92.81 99.27,92.75 99.03,92.72C98.39,92.63 97.7,92.51 97.04,92.45C96.8,92.44 96.59,92.28 96.52,92.05C96.19,91.33 95.83,90.64 95.5,89.94L95.13,89.22C95.05,88.91 94.76,88.7 94.44,88.7C94.12,88.75 93.85,88.97 93.75,89.28L93.29,90.21C92.96,90.85 92.63,91.51 92.33,92.18C92.26,92.34 92.11,92.44 91.94,92.45C91,92.57 90,92.72 88.74,92.93C88.47,92.96 88.23,93.11 88.07,93.32C87.8,93.75 88.16,94.08 88.31,94.23L88.4,94.32C88.5,94.43 88.6,94.53 88.7,94.62L89.22,95.13C89.67,95.59 90.15,96.04 90.64,96.49C90.79,96.61 90.85,96.82 90.79,97C90.67,97.58 90.58,98.15 90.49,98.69L90.46,98.93C90.4,99.27 90.34,99.6 90.31,99.93L90.25,100.39L90.25,100.42C90.22,100.65 90.33,100.88 90.52,101.02C90.71,101.14 90.94,101.16 91.15,101.08C91.27,101.05 91.38,101 91.48,100.93L91.54,100.9C91.78,100.78 92,100.66 92.24,100.53C92.87,100.2 93.51,99.87 94.11,99.53C94.3,99.38 94.58,99.38 94.77,99.53C95.37,99.87 96.01,100.2 96.64,100.53L97.37,100.9L97.46,100.93C97.56,101 97.67,101.05 97.79,101.08C97.9,101.11 98.01,101.13 98.12,101.14C98.45,101.14 98.73,100.88 98.74,100.55C98.74,100.5 98.73,100.46 98.72,100.41C98.72,100.32 98.69,100.23 98.69,100.17L98.69,100.11C98.63,99.84 98.6,99.54 98.54,99.27C98.42,98.57 98.33,97.85 98.18,97.15C98.1,96.87 98.21,96.57 98.45,96.4C99.21,95.71 99.9,95.01 100.69,94.2C100.99,93.87 101.02,93.63 100.96,93.44C100.82,93.17 100.57,92.98 100.27,92.93"/>
	<path fill="#2b265e" d="M111.07,96.7C111.19,97.27 111.28,97.88 111.37,98.45L111.43,98.84L111.22,98.72C110.68,98.45 110.13,98.15 109.59,97.85C109.28,97.63 108.87,97.63 108.56,97.85L107.21,98.57L106.72,98.81C106.7,98.81 106.68,98.83 106.66,98.84C106.66,98.78 106.69,98.69 106.69,98.63L106.75,98.21C106.84,97.75 106.9,97.27 106.99,96.79C107.11,96.4 106.97,95.99 106.66,95.73C106.27,95.37 105.88,94.98 105.48,94.59L105.15,94.25C105.51,94.19 105.88,94.13 106.21,94.07C106.54,94.01 106.87,93.98 107.23,93.92C107.6,93.9 107.92,93.67 108.05,93.32C108.26,92.84 108.53,92.32 108.77,91.84L108.98,91.42L108.98,91.39L109.08,91.57C109.14,91.73 109.22,91.88 109.32,92.02C109.53,92.45 109.74,92.87 109.92,93.29C110.07,93.67 110.42,93.92 110.82,93.95C111.42,94.05 112,94.11 112.63,94.23L112.87,94.26L112.63,94.5C112.21,94.92 111.76,95.34 111.31,95.77C111.09,96.03 111,96.37 111.07,96.7ZM115.51,93.44C115.4,93.18 115.16,92.99 114.87,92.96C114.72,92.93 114.54,92.9 114.39,92.87C114.15,92.84 113.88,92.77 113.64,92.74C113,92.65 112.31,92.53 111.64,92.47C111.4,92.47 111.2,92.31 111.13,92.08C110.8,91.36 110.44,90.66 110.1,89.97L109.74,89.24C109.65,88.93 109.37,88.72 109.05,88.73C108.73,88.78 108.46,89 108.35,89.3L107.9,90.24C107.57,90.87 107.27,91.54 106.94,92.2C106.87,92.36 106.72,92.47 106.54,92.47C105.61,92.59 104.61,92.75 103.34,92.96C103.08,92.99 102.84,93.13 102.68,93.35C102.41,93.77 102.77,94.1 102.92,94.25L103.01,94.34L103.28,94.62L103.8,95.13C104.25,95.58 104.73,96.06 105.25,96.52C105.4,96.64 105.46,96.85 105.4,97.03C105.28,97.6 105.19,98.18 105.1,98.72L105.07,98.99C105.01,99.32 104.95,99.66 104.92,99.99L104.86,100.45L104.86,100.48C104.84,100.71 104.94,100.94 105.13,101.08C105.32,101.2 105.55,101.22 105.76,101.13C105.88,101.1 105.99,101.05 106.09,100.98L106.15,100.95C106.39,100.83 106.61,100.71 106.85,100.59C107.48,100.26 108.12,99.93 108.72,99.59C108.91,99.44 109.19,99.44 109.38,99.59C109.98,99.92 110.62,100.26 111.25,100.59L111.98,100.95L112.07,100.98C112.17,101.05 112.28,101.1 112.4,101.13C112.51,101.17 112.62,101.19 112.73,101.2C113.06,101.2 113.34,100.94 113.34,100.61C113.35,100.56 113.34,100.52 113.33,100.47C113.33,100.38 113.3,100.29 113.3,100.23L113.3,100.17C113.24,99.9 113.21,99.6 113.15,99.33C113.03,98.63 112.94,97.91 112.79,97.21C112.71,96.93 112.82,96.63 113.06,96.46C113.82,95.76 114.51,95.07 115.3,94.26C115.5,94.04 115.58,93.73 115.51,93.44"/>
</svg>