<svg xmlns="http://www.w3.org/2000/svg" width="126.01" height="126.5" viewBox="0 0 126.01 126.5">
	<path fill="#f0f1f8" d="M63.29,0C97.93,0 126.01,28.08 126.01,62.71C126.01,97.35 97.93,125.43 63.29,125.43C28.65,125.43 0.57,97.35 0.57,62.71C0.57,28.08 28.65,0 63.29,0"/>
	<path fill="#ffffff" d="M74.43,86.57C70.8,88.11 67.17,87.79 63.01,87.79L18.82,87.79C16.41,87.79 13.25,88.36 11.02,87.39C8.67,86.19 6.55,84.57 4.76,82.63C1.13,78.59 2.51,71.55 2.51,66.56L2.51,21.69C2.51,15.87 -0.99,1.49 7.96,1.49L64.48,1.49C66.79,1.49 71.43,0.43 73.06,2.34C75.88,5.66 74.97,10.48 74.97,14.65L74.97,58.49C74.97,63.97 74.15,70.17 75.41,75.49C76.58,75.04 77.88,75.02 79.07,75.42C79.29,75.49 82.14,76.9 82.2,76.46C81.68,80.05 79.69,83.27 76.72,85.35C76,85.83 75.23,86.24 74.43,86.57"/>
	<path fill="#2b265e" d="M115.08,87.07C109.86,83.81 103.46,83.02 97.6,84.92C96.45,85.26 95.63,85.95 95.91,87.33C96.16,88.49 97.2,88.96 98.67,88.61C99.3,88.46 99.92,88.3 101.02,88.02C100.95,88.05 100.92,88.08 100.86,88.11C101.88,87.92 102.92,87.83 103.96,87.83C113.58,87.76 121.43,95.49 121.5,105.11C121.57,114.72 113.84,122.58 104.22,122.65C104.14,122.65 104.05,122.65 103.96,122.65C102.78,122.65 101.61,122.53 100.45,122.3L100.23,122.3C95.17,121.25 90.85,117.94 88.52,113.32C86.26,108.97 85.93,103.86 87.62,99.26C87.65,99.2 87.65,99.1 87.68,99.04C88.24,97.44 87.93,96.41 86.8,95.97C85.67,95.53 84.7,96.1 84.11,97.63C82.71,101.2 82.32,105.09 82.98,108.87C85,120.45 96.03,128.2 107.6,126.18C119.18,124.16 126.93,113.13 124.91,101.56C123.86,95.54 120.28,90.27 115.08,87.08Z"/>
	<path fill="#2b265e" d="M75.47,83.5C73.71,84.54 71.68,85.03 69.64,84.91C55.71,84.88 24.96,85.01 23.55,84.85C24.21,84.12 24.77,83.29 25.21,82.41C26.05,81.04 26.71,79.58 27.19,78.06C27.19,78.03 27.15,77.4 27.66,77.37C32.86,77.18 63.36,77.62 77.41,77.62L79.6,77.62C79.13,80.08 77.63,82.22 75.47,83.5ZM81.29,73.89C79.63,73.86 77.97,73.89 76.16,73.89L76.16,28.18C76.16,25.98 75.69,25.11 74.4,25.08C73.06,25.01 72.49,25.95 72.49,28.18L72.49,73.89L25.71,73.89C23.4,73.89 23.08,74.24 22.8,76.55C22.02,82.78 16.82,86.17 10.84,84.82C6.83,83.91 4.3,80.5 3.83,75.86C3.7,74.58 3.2,73.7 1.85,73.76C0.48,73.83 0.1,74.86 0.13,76.08C0.29,82.26 4.74,87.49 10.81,88.64C12.98,88.83 15.16,88.85 17.33,88.7L68.99,88.7C69.86,88.7 70.77,88.7 71.65,88.64C78.07,88.2 83.55,82.5 83.58,76.27C83.61,74.55 83.05,73.92 81.29,73.89"/>
	<path fill="#2b265e" d="M0.26,58.83C0.26,61.18 0.73,62.02 2.04,62.05C3.45,62.12 4.01,61.21 4.01,58.83L4.01,7.01C4.01,4.53 4.42,4.03 6.51,4.03L69.61,4.03C71.77,4.03 72.46,4.75 72.49,6.98C72.52,9.17 72.49,11.36 72.49,13.55C72.49,14.84 72.99,15.71 74.4,15.68C75.72,15.65 76.16,14.74 76.16,13.55L76.16,6.82C76.12,2.59 73.84,0.34 69.52,0.34L38.05,0.34C27.47,0.34 16.85,0.31 6.27,0.4C4.94,0.4 3.63,0.79 2.51,1.5C0.73,2.66 0.26,4.63 0.26,6.73C0.29,24.1 0.29,41.47 0.26,58.83"/>
	<path fill="#2b265e" d="M59.59,55.35C60.16,55.35 60.88,55.45 61.25,55.17C61.82,54.76 62.54,53.98 62.48,53.44C62.41,52.82 61.63,52.19 61.04,51.72C60.79,51.5 60.22,51.66 59.81,51.66L17.76,51.66C17.35,51.66 16.79,51.53 16.54,51.75C15.97,52.19 15.22,52.82 15.19,53.38C15.31,54.1 15.73,54.74 16.35,55.13C16.93,55.37 17.55,55.45 18.17,55.35L59.59,55.35Z"/>
	<path fill="#2b265e" d="M17.6,61.49C15.94,61.49 15,62.24 15.13,63.43C15.29,64.9 16.29,65.22 17.6,65.22C21.52,65.19 25.43,65.22 29.34,65.22L41.09,65.22C42.4,65.28 43.4,64.84 43.5,63.4C43.59,62.27 42.65,61.52 41.12,61.52C33.23,61.49 25.43,61.49 17.6,61.49"/>
	<path fill="#2b265e" d="M1.85,69.91C2.83,69.98 3.69,69.24 3.76,68.26C3.76,68.21 3.76,68.15 3.76,68.1C3.81,67.1 3.05,66.24 2.04,66.19C1.99,66.19 1.94,66.19 1.88,66.19C0.93,66.11 0.09,66.82 0.01,67.77C0,67.86 0,67.95 0.01,68.04C-0.09,68.97 0.58,69.81 1.51,69.91C1.62,69.92 1.74,69.93 1.85,69.91"/>
	<path fill="#2b265e" d="M74.22,18.56C73.27,18.46 72.42,19.13 72.31,20.08C72.3,20.18 72.3,20.28 72.31,20.38C72.27,21.41 73.08,22.27 74.11,22.31C75.13,22.34 76,21.53 76.03,20.51C76.16,19.57 75.5,18.7 74.56,18.58C74.45,18.56 74.33,18.56 74.22,18.56"/>
	<path fill="#2b265e" d="M92.88,90.99C92.78,89.83 92.19,89.08 91.03,89.08C90,89.06 89.15,89.88 89.14,90.91C89.12,91.94 89.94,92.79 90.97,92.8C91.44,92.83 91.91,92.67 92.28,92.37L92.31,92.34C92.62,91.94 92.81,91.48 92.88,90.99"/>
	<path fill="#ffffff" d="M96.7,108.05C98.11,109.34 99.58,110.62 101.08,111.81C101.81,112.53 102.98,112.52 103.7,111.79C103.76,111.73 103.82,111.66 103.87,111.59C106.78,107.99 109.66,104.36 112.51,100.69C113.18,99.96 113.13,98.83 112.4,98.16C112.31,98.07 112.21,98 112.1,97.94C111.28,97.28 110.08,97.41 109.41,98.22C109.12,98.52 108.86,98.85 108.63,99.19C106.5,101.88 104.34,104.57 102.11,107.39C101.08,106.54 100.24,105.79 99.33,105.07C98.53,104.31 97.28,104.34 96.52,105.13C95.76,105.93 95.79,107.18 96.58,107.94C96.62,107.98 96.66,108.01 96.7,108.05Z"/>
	<path fill="#ffffff" d="M88.52,113.28C90.94,117.93 95.32,121.23 100.46,122.27L100.77,122.27C91.34,117.26 87.75,105.55 92.76,96.12C94.59,92.69 97.4,89.89 100.83,88.08C97.65,88.65 94.68,90.11 92.28,92.28L92.25,92.31C90.18,94.19 88.59,96.54 87.62,99.16C86.04,103.8 86.36,108.88 88.52,113.28"/>
	<path fill="#6f36ff" d="M99.36,105.08C100.24,105.8 101.11,106.55 102.15,107.4C104.4,104.58 106.53,101.88 108.66,99.2C108.91,98.88 109.16,98.54 109.44,98.22C110.11,97.41 111.31,97.29 112.14,97.94C112.99,98.45 113.27,99.55 112.77,100.4C112.7,100.5 112.63,100.61 112.54,100.7C109.69,104.36 106.81,108 103.9,111.6C103.29,112.42 102.13,112.59 101.31,111.98C101.24,111.93 101.17,111.88 101.11,111.82C99.61,110.63 98.14,109.34 96.73,108.06C95.89,107.35 95.78,106.1 96.49,105.26C97.2,104.42 98.45,104.31 99.29,105.02C99.31,105.04 99.34,105.06 99.36,105.08ZM100.8,122.27L100.49,122.27C101.64,122.5 102.82,122.61 103.99,122.61C113.61,122.54 121.34,114.69 121.27,105.07C121.2,95.56 113.51,87.87 103.99,87.79C102.95,87.79 101.92,87.89 100.89,88.08C91.44,93.02 87.78,104.69 92.72,114.15C94.53,117.61 97.35,120.44 100.8,122.27"/>
	<path fill="#000000" d="M88.52,113.28C86.33,108.9 86.01,103.82 87.62,99.19C85.93,103.81 86.26,108.92 88.52,113.28"/>
	<path fill="#000000" d="M92.28,92.3L92.25,92.33Z"/>
	<path fill="#2b265e" d="M21.92,37.73L21.92,43.77L16.98,43.77L16.98,39.38C16.98,39.2 17.01,38.98 17.01,38.73L17.01,38.66ZM29.31,36.13L29.31,43.83L24.55,43.83C24.46,43.01 24.46,37.79 24.55,37.13ZM36.8,34.41L36.8,43.8L32.04,43.8C31.94,43.02 31.94,36.32 32.04,35.53ZM44.25,32.34L44.25,43.8L39.37,43.8L39.37,33.72L40.18,33.5C41.53,33.12 42.9,32.72 44.25,32.34ZM51.64,29.78L51.64,43.78L46.88,43.78C46.7,41.8 46.7,33.44 46.85,31.53ZM59.25,25.33L59.25,43.74C57.6,43.9 55.95,43.92 54.3,43.77L54.3,28.58C56.08,27.71 57.75,26.62 59.25,25.33ZM61.63,24.23L61.63,23.42C61.72,22.61 61.22,21.86 60.44,21.63C59.68,21.39 58.86,21.73 58.5,22.44C57.59,23.68 56.41,24.68 55.05,25.39C52.41,26.84 49.63,28.03 46.75,28.96C38.21,31.84 29.44,33.72 19.7,35.69C18.66,35.91 17.66,36.1 16.6,36.32L14.75,36.69L14.72,37.04C14.69,37.22 14.69,37.38 14.66,37.54C14.62,37.79 14.6,38.04 14.59,38.29L14.59,44.36C14.59,45.96 14.91,46.24 16.53,46.24L59.91,46.24C61.32,46.24 61.63,45.9 61.66,44.46L61.66,44.05Z"/>
	<path fill="#2b265e" d="M32.04,23.45C33.07,22.57 34.07,21.69 35.07,20.82C35.07,20.44 35.04,20.07 35.07,19.69C35.12,18.57 35.92,17.61 37.02,17.37C38.01,17.1 39.06,17.52 39.58,18.41C39.91,19.2 40.7,19.69 41.56,19.63C41.96,19.67 42.36,19.74 42.75,19.85C44.28,18.35 44.66,18.25 46.63,18.91C47.73,18.06 48.85,17.19 50.11,16.22C49.98,14.84 50.14,13.43 51.71,12.9C52.81,12.43 54.09,12.83 54.74,13.84C55.23,13.67 55.73,13.53 56.24,13.43C57.01,13.38 57.66,12.83 57.84,12.08C58.23,11.08 59.25,10.46 60.32,10.58C61.32,10.69 62.19,11.35 62.54,12.3C62.84,13.33 62.51,14.43 61.69,15.12C60.84,15.75 59.7,15.81 58.78,15.28C58.46,15.06 58.15,14.81 57.87,14.53C57.4,14.65 56.94,14.84 56.43,14.94C55.72,15 55.13,15.5 54.93,16.19C54.51,17.42 53.17,18.08 51.93,17.66C51.9,17.65 51.87,17.64 51.83,17.63C51.59,17.54 51.34,17.47 51.08,17.41C49.92,18.32 48.77,19.22 47.64,20.1C47.64,22.29 47.11,23.23 45.76,23.51C44.32,23.83 43.38,23.2 42.5,21.39C41.72,21.23 40.9,21.07 40.03,20.92C39.31,22.3 37.6,22.84 36.22,22.13C36.15,22.09 36.09,22.05 36.02,22.02C35.02,22.86 34.11,23.68 33.14,24.49L33.14,25.73C33.16,27.02 32.14,28.08 30.86,28.11C29.52,28.28 28.31,27.34 28.13,26.01C28.07,25.7 28.1,25.35 28.07,25.07C27.95,24.96 27.83,24.87 27.69,24.79C26.85,24.29 26,23.79 25.06,23.25C24.14,23.88 22.97,24.01 21.93,23.6C21.05,24.38 20.27,25.13 19.46,25.82C18.75,26.3 18.39,27.14 18.52,27.98C18.67,29.25 17.76,30.39 16.5,30.54C16.28,30.57 16.06,30.56 15.85,30.53C14.46,30.45 13.39,29.25 13.48,27.86C13.56,26.46 14.76,25.4 16.15,25.48C16.25,25.49 16.35,25.5 16.44,25.52C16.75,25.58 17.05,25.67 17.35,25.77C18.35,24.83 19.35,23.83 20.39,22.89C20.73,22.55 20.85,22.06 20.7,21.6C20.58,20.74 20.93,19.88 21.61,19.35C22.68,18.47 24.25,18.63 25.13,19.69C25.28,19.87 25.4,20.07 25.49,20.29C25.68,20.84 25.82,21.4 25.9,21.98C26.84,22.51 27.81,23.11 28.75,23.64C29.75,23.05 30.97,22.98 32.04,23.45"/>
	<path fill="#e7e6e6" d="M11.25,114.69C12.23,114.69 13.03,115.49 13.03,116.48C13.03,117.46 12.23,118.26 11.25,118.26C10.26,118.26 9.46,117.46 9.46,116.48C9.46,115.49 10.26,114.69 11.25,114.69"/>
	<path fill="#8c94c9" d="M45.57,100.26C46.55,100.26 47.35,101.06 47.35,102.04C47.35,103.03 46.55,103.83 45.57,103.83C44.58,103.83 43.78,103.03 43.78,102.04C43.78,101.06 44.58,100.26 45.57,100.26"/>
	<path fill="#97d3f1" d="M62.76,108.84C63.74,108.84 64.54,109.63 64.54,110.62C64.54,111.61 63.74,112.41 62.76,112.41C61.77,112.41 60.97,111.61 60.97,110.62C60.97,109.63 61.77,108.84 62.76,108.84"/>
	<path fill="#8c94c9" d="M105.47,50.03C106.45,50.03 107.25,50.83 107.25,51.82C107.25,52.8 106.45,53.6 105.47,53.6C104.48,53.6 103.68,52.8 103.68,51.82C103.68,50.83 104.48,50.03 105.47,50.03"/>
	<path fill="#97d3f1" d="M94.04,33.62C95.02,33.62 95.82,34.42 95.82,35.41C95.82,36.39 95.02,37.19 94.04,37.19C93.05,37.19 92.25,36.39 92.25,35.41C92.25,34.42 93.05,33.62 94.04,33.62"/>
	<path fill="#e7e6e6" d="M118.05,12.71C119.04,12.71 119.84,13.51 119.84,14.49C119.84,15.48 119.04,16.28 118.05,16.28C117.07,16.28 116.27,15.48 116.27,14.49C116.27,13.51 117.07,12.71 118.05,12.71"/>
</svg>