<svg xmlns="http://www.w3.org/2000/svg" width="80" height="80" viewBox="0 0 80 80">
	<path fill="#eceff1" d="M22.77,1.07C28.48,0.36 34.24,0 40,0C45.74,0 51.48,0.35 57.22,1.07C68.56,2.5 77.5,11.43 78.92,22.77C80.35,34.21 80.35,45.78 78.92,57.22C77.5,68.56 68.56,77.5 57.22,78.92C51.51,79.64 45.75,80 40,80C34.26,80 28.51,79.64 22.77,78.92C11.43,77.49 2.5,68.56 1.08,57.22C0.36,51.51 0,45.76 0,40C0,34.26 0.35,28.51 1.07,22.77C2.5,11.43 11.43,2.5 22.77,1.08Z"/>
	<path stroke="#78909c" fill="none" stroke-width="6" d="M46.35,47.05L53.96,54.66"/>
	<path stroke="#78909c" fill="none" stroke-width="6" d="M40.24,23.55L40.24,34.18"/>
	<path stroke="#cfd8dc" fill="none" stroke-width="6" d="M34.12,47.05L26.52,54.66"/>
	<path fill="#78909c" d="M59.32,54.95C62.12,54.95 64.39,57.22 64.39,60.02C64.39,62.82 62.12,65.1 59.32,65.1C56.52,65.1 54.25,62.82 54.25,60.02C54.25,57.22 56.52,54.95 59.32,54.95"/>
	<path fill="#cfd8dc" d="M21.15,54.95C23.96,54.95 26.23,57.22 26.23,60.02C26.23,62.82 23.96,65.1 21.15,65.1C18.35,65.1 16.08,62.82 16.08,60.02C16.08,57.22 18.35,54.95 21.15,54.95"/>
	<path fill="#78909c" d="M40,10.51C42.8,10.51 45.07,12.78 45.07,15.58C45.07,18.38 42.8,20.65 40,20.65C37.19,20.65 34.92,18.38 34.92,15.58C34.92,12.78 37.19,10.51 40,10.51"/>
	<path fill="#78909c" d="M40,36.59C42.8,36.59 45.07,38.86 45.07,41.67C45.07,44.47 42.8,46.74 40,46.74C37.19,46.74 34.92,44.47 34.92,41.67C34.92,38.86 37.19,36.59 40,36.59"/>
</svg>