<svg xmlns="http://www.w3.org/2000/svg" width="80" height="80" viewBox="0 0 80 80">
<path fill="#e0edff" d="M78.92,22.77C77.5,11.43 68.56,2.5 57.22,1.08C51.48,0.36 45.74,0 40,0C34.24,0 28.48,0.36 22.77,1.08L22.77,1.08C11.43,2.5 2.5,11.43 1.07,22.77C0.35,28.51 0,34.26 0,40C0,42.03 0.06,44.06 0.15,46.09L14.26,31.98L3.32,31.98C1.94,31.98 0.82,30.86 0.82,29.48C0.82,28.1 1.94,26.98 3.32,26.98L20.29,26.98C21.67,26.98 22.79,28.1 22.79,29.48L22.79,46.45C22.79,47.83 21.67,48.95 20.29,48.95C18.91,48.95 17.79,47.83 17.79,46.45L17.79,35.52L0.59,52.72C0.73,54.22 0.89,55.72 1.08,57.22C1.67,61.96 3.59,66.27 6.44,69.8L44.26,31.98L33.32,31.98C31.94,31.98 30.82,30.86 30.82,29.48C30.82,28.1 31.94,26.98 33.32,26.98L50.29,26.98C51.67,26.98 52.79,28.1 52.79,29.48L52.79,46.45C52.79,47.83 51.67,48.95 50.29,48.95C48.91,48.95 47.79,47.83 47.79,46.45L47.79,35.52L9.95,73.36C13.52,76.32 17.92,78.31 22.77,78.92C24.14,79.09 25.5,79.24 26.87,79.37L44.26,61.98L33.32,61.98C31.94,61.98 30.82,60.86 30.82,59.48C30.82,58.1 31.94,56.98 33.32,56.98L50.29,56.98C51.67,56.98 52.79,58.1 52.79,59.48L52.79,76.45C52.79,77.83 51.67,78.95 50.29,78.95C48.91,78.95 47.79,77.83 47.79,76.45L47.79,65.52L33.48,79.83C35.65,79.93 37.82,80 40,80C45.75,80 51.51,79.64 57.22,78.92C68.56,77.5 77.5,68.56 78.92,57.22C80.35,45.78 80.35,34.21 78.92,22.77"/>
	<path fill="#6363b7" d="M50.29,26.98L33.32,26.98C31.94,26.98 30.82,28.1 30.82,29.48C30.82,30.86 31.94,31.98 33.32,31.98L44.26,31.98L6.44,69.8C7.49,71.1 8.66,72.29 9.95,73.36L47.79,35.52L47.79,46.45C47.79,47.83 48.91,48.95 50.29,48.95C51.67,48.95 52.79,47.83 52.79,46.45L52.79,29.48C52.79,28.1 51.67,26.98 50.29,26.98"/>
	<path fill="#6363b7" d="M50.29,56.98L33.32,56.98C31.94,56.98 30.82,58.1 30.82,59.48C30.82,60.86 31.94,61.98 33.32,61.98L44.26,61.98L26.87,79.37C29.07,79.58 31.28,79.72 33.48,79.83L47.79,65.52L47.79,76.45C47.79,77.83 48.91,78.95 50.29,78.95C51.67,78.95 52.79,77.83 52.79,76.45L52.79,59.48C52.79,58.1 51.67,56.98 50.29,56.98"/>
	<path fill="#6363b7" d="M17.79,46.45C17.79,47.83 18.91,48.95 20.29,48.95C21.67,48.95 22.79,47.83 22.79,46.45L22.79,29.48C22.79,28.1 21.67,26.98 20.29,26.98L3.32,26.98C1.94,26.98 0.82,28.1 0.82,29.48C0.82,30.86 1.94,31.98 3.32,31.98L14.26,31.98L0.15,46.09C0.25,48.3 0.38,50.51 0.59,52.72L17.79,35.52Z"/>
</svg>