<svg xmlns="http://www.w3.org/2000/svg" width="80" height="80" viewBox="0 0 80 80">
	<path fill="#e8f5e9" d="M22.77,1.08C28.48,0.36 34.24,0 40,0C45.74,0 51.48,0.36 57.22,1.08C68.56,2.5 77.5,11.43 78.92,22.77C80.35,34.21 80.35,45.78 78.92,57.22C77.5,68.56 68.56,77.5 57.22,78.92C51.51,79.64 45.75,80 40,80C34.26,80 28.51,79.64 22.77,78.92C11.43,77.5 2.5,68.56 1.08,57.22C0.36,51.51 0,45.76 0,40C0,34.26 0.35,28.51 1.07,22.77C2.5,11.43 11.43,2.5 22.77,1.08Z"/>
	<path fill="#a5d6a7" d="M40,18.78C44.72,18.78 48.56,22.61 48.56,27.34C48.56,32.06 44.72,35.9 40,35.9C35.27,35.9 31.43,32.06 31.43,27.34C31.43,22.61 35.27,18.78 40,18.78"/>
	<path fill="#66bb6a" d="M32.15,39.1L47.84,39.1C50.6,39.1 52.84,41.34 52.84,44.1L52.84,56.22C52.84,58.98 50.6,61.22 47.84,61.22L32.15,61.22C29.39,61.22 27.16,58.98 27.16,56.22L27.16,44.1C27.16,41.34 29.39,39.1 32.15,39.1"/>
</svg>