<svg xmlns="http://www.w3.org/2000/svg" width="80" height="80" viewBox="0 0 80 80"><path fill="#cceafd" d="M22.77,1.08C28.48,0.36 34.24,0 40,0C45.74,0 51.48,0.36 57.22,1.08C68.56,2.5 77.5,11.43 78.92,22.77C80.35,34.21 80.35,45.78 78.92,57.22C77.5,68.56 68.56,77.5 57.22,78.92C51.51,79.64 45.75,80 40,80C34.26,80 28.51,79.64 22.77,78.92C11.43,77.5 2.5,68.56 1.08,57.22C0.36,51.51 0,45.76 0,40C0,34.26 0.35,28.51 1.07,22.77C2.5,11.43 11.43,2.5 22.77,1.08Z"/>
	<path fill="#0095f7" d="M33.87,59.39L15.5,41.57L23.08,33.99L33.87,44.22L56.91,20.6L64.5,28.18Z"/>
</svg>