<svg xmlns="http://www.w3.org/2000/svg" width="80" height="80" viewBox="0 0 80 80">
	<path fill="#f3e5f5" d="M22.77,1.08C28.48,0.36 34.24,0 40,0C45.74,0 51.48,0.36 57.22,1.08C68.56,2.5 77.5,11.43 78.92,22.77C80.35,34.21 80.35,45.78 78.92,57.22C77.5,68.56 68.56,77.5 57.22,78.92C51.51,79.64 45.75,80 40,80C34.26,80 28.51,79.64 22.77,78.92C11.43,77.5 2.5,68.56 1.08,57.22C0.36,51.51 0,45.76 0,40C0,34.26 0.35,28.51 1.07,22.77C2.5,11.43 11.43,2.5 22.77,1.08Z"/>
	<path fill="#e1bee7" d="M15.13,59.54L27.69,64.68L27.69,23.88L15.13,18.74Z"/>
	<path fill="#e1bee7" d="M40.25,59.54L52.81,64.68L52.81,23.88L40.25,18.74Z"/>
	<path fill="#ce93d8" d="M40.25,59.54L27.69,64.68L27.69,23.88L40.25,18.74Z"/>
	<path fill="#ce93d8" d="M65.37,59.54L52.81,64.68L52.81,23.88L65.37,18.74Z"/>
	<path fill="#ab47bc" d="M43.79,41.27L41.92,41.41L42.19,44L44.02,43.69ZM42.75,47.97L44.56,48.01L44.47,45.39L42.62,45.61ZM49.17,36.29L48.73,34.68L45.99,35.6L46.7,37.16ZM50.9,36.01L53.62,35.43L53.27,33.8L50.56,34.38ZM43.74,49.97L42.23,49.1L40.68,51.14L42.13,52.19ZM45.55,38L44.11,37.02L42.61,39.3L44.19,40.08ZM34.99,54.22L35.6,52.64L33.13,51.72L32.32,53.25ZM27.67,44.27L29.03,43.13L26.86,41.37L25.73,42.72ZM24.48,42.22L24.79,40.54L21.93,40.46L21.92,42.17ZM30.62,51.91L32.22,50.97L30.93,48.95L29.19,49.66ZM28.81,47.86L30.62,47.48L30.1,45.03L28.29,45.42ZM40.13,53.47L39.51,51.9L36.92,52.62L37.27,54.25ZM56.46,37.98L58.58,34.72L61.85,36.83L62.75,35.45L59.48,33.33L61.6,30.07L60.22,29.17L58.1,32.43L54.84,30.31L53.94,31.7L57.2,33.82L55.08,37.08Z"/>
</svg>