<svg xmlns="http://www.w3.org/2000/svg" width="80" height="80" viewBox="0 0 80 80">
	<path fill="#fce4ec" d="M22.77,1.08C28.48,0.36 34.24,0 40,0C45.74,0 51.48,0.36 57.22,1.08C68.56,2.5 77.5,11.43 78.92,22.77C80.35,34.21 80.35,45.78 78.92,57.22C77.5,68.56 68.56,77.5 57.22,78.92C51.51,79.64 45.75,80 40,80C34.26,80 28.51,79.64 22.77,78.92C11.43,77.5 2.5,68.56 1.08,57.22C0.36,51.51 0,45.76 0,40C0,34.26 0.35,28.51 1.07,22.77C2.5,11.43 11.43,2.5 22.77,1.08Z"/>
	<path fill="#f8bbd0" d="M54.25,19.07C54.25,16.87 52.45,15.08 50.24,15.08L30.23,15.08C28.02,15.08 26.23,16.87 26.23,19.07L26.23,58.92C26.23,61.12 28.02,62.91 30.23,62.91L50.24,62.91C52.45,62.91 54.25,61.12 54.25,58.92Z"/>
	<path fill="#ec407a" d="M37.23,19.07L43.24,19.07C43.79,19.07 44.24,19.52 44.24,20.07C44.24,20.62 43.79,21.06 43.24,21.06L37.23,21.06C36.68,21.06 36.23,20.62 36.23,20.07C36.23,19.52 36.68,19.07 37.23,19.07"/>
	<path fill="#ec407a" d="M40.24,58.92C39.13,58.92 38.24,58.03 38.24,56.93C38.24,55.83 39.13,54.94 40.24,54.94C41.34,54.94 42.24,55.83 42.24,56.93C42.24,58.03 41.34,58.92 40.24,58.92"/>
	<path fill="#ec407a" d="M50.24 25L30.23 25L30.23 52.95L50.24 52.95Z"/>
</svg>