<svg xmlns="http://www.w3.org/2000/svg" width="80" height="80" viewBox="0 0 80 80">
	<path fill="#b2dfdb" d="M22.77,1.07C28.48,0.36 34.24,0 40,0C45.74,0 51.48,0.35 57.22,1.07C68.56,2.5 77.5,11.43 78.92,22.77C80.35,34.21 80.35,45.78 78.92,57.22C77.5,68.56 68.56,77.5 57.22,78.92C51.51,79.64 45.75,80 40,80C34.26,80 28.51,79.64 22.77,78.92C11.43,77.49 2.5,68.56 1.08,57.22C0.36,51.51 0,45.76 0,40C0,34.26 0.36,28.51 1.08,22.77C2.5,11.43 11.43,2.5 22.77,1.08Z"/>
	<path fill="#26a69a" d="M26.51,43.22L37.38,37.83L26.24,28.32L29.68,26.61L47.73,32.71L56.35,28.44C58.62,27.3 62.37,27.61 63.23,29.33C63.36,29.6 63.42,29.91 63.42,30.24C63.42,32 61.65,34.39 59.76,35.34L51.14,39.61L45.05,57.65L41.6,59.35L40.8,44.72L29.92,50.11L27.68,55.52L25.26,56.71L24.42,48.54L18.43,42.92L20.85,41.72Z"/>
</svg>