<svg xmlns="http://www.w3.org/2000/svg" width="80" height="80" viewBox="0 0 80 80">
<path fill="#e8faf0" d="M22.77,1.08C28.48,0.36 34.24,0 40,0C45.74,0 51.48,0.36 57.22,1.08C68.56,2.5 77.5,11.43 78.92,22.77C80.35,34.21 80.35,45.78 78.92,57.22C77.5,68.56 68.56,77.5 57.22,78.92C51.51,79.64 45.75,80 40,80C34.26,80 28.51,79.64 22.77,78.92C11.43,77.5 2.5,68.56 1.08,57.22C0.36,51.51 0,45.76 0,40C0,34.26 0.35,28.51 1.07,22.77C2.5,11.43 11.43,2.5 22.77,1.08Z"/>
	<path fill="#27cf68" d="M41.64,56.07L41.64,59.5L38.35,59.5L38.35,56.25C34.95,56.19 31.43,55.39 28.49,53.89L29.99,48.55C33.13,49.75 37.31,51.03 40.59,50.3C44.36,49.46 45.13,45.62 40.96,43.77C37.9,42.36 28.55,41.15 28.55,33.23C28.55,28.8 31.96,24.83 38.35,23.96L38.35,20.5L41.64,20.5L41.64,23.8C44.02,23.87 46.68,24.28 49.66,25.17L48.47,30.52C45.95,29.64 43.16,28.85 40.45,29.01C35.55,29.29 35.12,33.48 38.54,35.24C44.16,37.86 51.49,39.79 51.49,46.77C51.5,52.35 47.08,55.32 41.64,56.07"/>
</svg>